<!DOCTYPE svg PUBLIC "-//W3C//DTD SVG 1.1//EN" "http://www.w3.org/Graphics/SVG/1.1/DTD/svg11.dtd">
<!-- Uploaded to: SVG Repo, www.svgrepo.com, Transformed by: SVG Repo Mixer Tools -->
<svg width="800px" height="800px" viewBox="0 0 24 24" fill="none" xmlns="http://www.w3.org/2000/svg">
<g id="SVGRepo_bgCarrier" stroke-width="0"/>
<g id="SVGRepo_tracerCarrier" stroke-linecap="round" stroke-linejoin="round"/>
<g id="SVGRepo_iconCarrier"> <path fill-rule="evenodd" clip-rule="evenodd" d="M13.5 5.25H10.5C9.67157 5.25 9 5.92157 9 6.75H15C15 5.92157 14.3284 5.25 13.5 5.25ZM15 4.15135C14.5587 3.89609 14.0464 3.75 13.5 3.75H10.5C9.95357 3.75 9.44126 3.89609 9 4.15135V3.75H7.5V6.75V7.37829L5.25 14.1283V20.25H6.75V18H17.25V20.25H18.75V14.1283L16.5 7.37829V6.75V3.75H15V4.15135ZM15.2094 8.25H8.79057L7.04057 13.5H16.9594L15.2094 8.25ZM17.25 15H6.75V16.5H17.25V15Z" fill="#454545"/> </g>
</svg>