<!DOCTYPE svg PUBLIC "-//W3C//DTD SVG 1.1//EN" "http://www.w3.org/Graphics/SVG/1.1/DTD/svg11.dtd">
<!-- Uploaded to: SVG Repo, www.svgrepo.com, Transformed by: SVG Repo Mixer Tools -->
<svg height="150px" width="150px" version="1.1" id="_x32_" xmlns="http://www.w3.org/2000/svg" xmlns:xlink="http://www.w3.org/1999/xlink" viewBox="0 0 512 512" xml:space="preserve" fill="#858585" stroke="#858585" stroke-width="5.632">
<g id="SVGRepo_bgCarrier" stroke-width="0"/>
<g id="SVGRepo_tracerCarrier" stroke-linecap="round" stroke-linejoin="round"/>
<g id="SVGRepo_iconCarrier"> <style type="text/css"> .st0{fill:#858585;} </style> <g> <path class="st0" d="M429.684,163.714V78.711L350.958,0h-4.916h-179.11v148.673c-12.768-10.612-29.068-17.136-46.961-17.136 h-16.586c-20.396-0.015-38.776,8.324-51.953,21.734C38.239,166.674,30.162,185.2,30.17,205.55v221.216 c0.008,47.015,38.219,85.218,85.235,85.234h281.192c47.015-0.016,85.219-38.219,85.234-85.234V242.262 C481.816,206.972,460.298,176.651,429.684,163.714z M190.676,23.743h150.451l1.213,1.213V87.8h62.859l0.742,0.742v69.027 c-3.068-0.34-6.183-0.541-9.344-0.541H190.676V23.743z M56.278,205.55c0-26.016,21.092-47.108,47.107-47.108h16.586 c26.016,0,47.108,21.092,47.108,47.108v119.898c0,26.015-21.092,47.108-47.108,47.108h-16.586 c-26.016,0-47.107-21.093-47.107-47.108V205.55z M454.926,426.766c0,32.214-26.116,58.33-58.33,58.33H115.404 c-32.214,0-58.33-26.116-58.33-58.33v-47.818c12.436,10.782,28.604,17.351,46.311,17.351h16.586 c39.07,0,70.851-31.782,70.851-70.851v-19.376v-77.165v-44.975h205.774c32.214,0,58.33,26.116,58.33,58.331V426.766z"/> <path class="st0" d="M236.98,386.908c-8.494,0-15.381,6.894-15.381,15.389c0,8.494,6.887,15.38,15.381,15.38 c8.494,0,15.388-6.886,15.388-15.38C252.367,393.802,245.473,386.908,236.98,386.908z"/> <path class="st0" d="M316.131,386.908c-8.495,0-15.381,6.894-15.381,15.389c0,8.494,6.886,15.38,15.381,15.38 c8.494,0,15.388-6.886,15.388-15.38C331.519,393.802,324.625,386.908,316.131,386.908z"/> <path class="st0" d="M395.283,386.908c-8.494,0-15.381,6.894-15.381,15.389c0,8.494,6.886,15.38,15.381,15.38 c8.502,0,15.388-6.886,15.388-15.38C410.671,393.802,403.784,386.908,395.283,386.908z"/> <path class="st0" d="M236.98,336.771c-8.494,0-15.381,6.894-15.381,15.388c0,8.494,6.887,15.381,15.381,15.381 c8.494,0,15.388-6.887,15.388-15.381C252.367,343.665,245.473,336.771,236.98,336.771z"/> <path class="st0" d="M316.131,336.771c-8.495,0-15.381,6.894-15.381,15.388c0,8.494,6.886,15.381,15.381,15.381 c8.494,0,15.388-6.887,15.388-15.381C331.519,343.665,324.625,336.771,316.131,336.771z"/> <path class="st0" d="M395.283,336.771c-8.494,0-15.381,6.894-15.381,15.388c0,8.494,6.886,15.381,15.381,15.381 c8.502,0,15.388-6.887,15.388-15.381C410.671,343.665,403.784,336.771,395.283,336.771z"/> <path class="st0" d="M236.98,286.649c-8.494,0-15.381,6.894-15.381,15.388s6.887,15.381,15.381,15.381 c8.494,0,15.388-6.887,15.388-15.381S245.473,286.649,236.98,286.649z"/> <path class="st0" d="M316.131,286.649c-8.495,0-15.381,6.894-15.381,15.388s6.886,15.381,15.381,15.381 c8.494,0,15.388-6.887,15.388-15.381S324.625,286.649,316.131,286.649z"/> <path class="st0" d="M395.283,286.649c-8.494,0-15.381,6.894-15.381,15.388s6.886,15.381,15.381,15.381 c8.502,0,15.388-6.887,15.388-15.381S403.784,286.649,395.283,286.649z"/> <path class="st0" d="M396.055,231.696H237.768c-8.741,0-15.828,7.088-15.828,15.829c0,8.742,7.087,15.829,15.828,15.829h158.288 c8.742,0,15.829-7.087,15.829-15.829C411.884,238.784,404.797,231.696,396.055,231.696z"/> </g> </g>
</svg>