<!DOCTYPE svg PUBLIC "-//W3C//DTD SVG 1.1//EN" "http://www.w3.org/Graphics/SVG/1.1/DTD/svg11.dtd">
<!-- Uploaded to: SVG Repo, www.svgrepo.com, Transformed by: SVG Repo Mixer Tools -->
<svg fill="#454545" height="256px" width="256px" version="1.1" id="Capa_1" xmlns="http://www.w3.org/2000/svg" xmlns:xlink="http://www.w3.org/1999/xlink" viewBox="-76.8 -76.8 665.60 665.60" xml:space="preserve" stroke="#454545">
<g id="SVGRepo_bgCarrier" stroke-width="0"/>
<g id="SVGRepo_tracerCarrier" stroke-linecap="round" stroke-linejoin="round"/>
<g id="SVGRepo_iconCarrier"> <g> <g> <path d="M437.077,75.039C388.741,26.671,324.462,0.021,256.082,0c-0.028,0-0.055,0-0.083,0C216.277,0,178.2,8.852,142.833,26.311 c-3.765,1.858-5.31,6.417-3.452,10.181c1.858,3.763,6.418,5.311,10.181,3.451c33.258-16.416,69.066-24.74,106.436-24.74 c0.025,0,0.054,0,0.079,0c64.318,0.021,124.78,25.087,170.247,70.583c45.465,45.495,70.494,105.973,70.473,170.291 c-0.021,64.318-25.087,124.78-70.583,170.247c-45.478,45.449-105.919,70.474-170.211,70.474c-0.023,0-0.057,0-0.08,0 c-132.776-0.044-240.762-108.099-240.72-240.875c0.021-65.434,25.836-126.634,72.69-172.327c3.006-2.931,3.066-7.744,0.135-10.75 c-2.932-3.006-7.745-3.066-10.749-0.135c-24.183,23.584-43.191,51.205-56.498,82.095C7.003,186.79,0.012,220.808,0,255.918 c-0.021,68.38,26.586,132.676,74.923,181.043C123.26,485.329,187.538,511.979,255.918,512c0.028,0,0.055,0,0.084,0 c68.348-0.001,132.612-26.607,180.959-74.923C485.33,388.741,511.979,324.462,512,256.082S485.415,123.407,437.077,75.039z"/> </g> </g> <g> <g> <path d="M256.066,44.308c-0.027,0-0.039,0-0.068,0c-116.688,0-211.653,94.925-211.69,211.624 c-0.015,51.009,18.106,97.866,48.254,134.464c0.11,0.146,0.231,0.286,0.354,0.425c8.469,10.227,17.88,19.646,28.098,28.126 c0.179,0.164,0.365,0.319,0.556,0.463c36.569,30.137,83.386,48.266,134.361,48.282c0.027,0,0.04,0,0.068,0 c116.688,0,211.653-94.925,211.69-211.624C467.727,139.341,372.794,44.347,256.066,44.308z M109.04,386.268l197.675-191.93 c3.012-2.924,3.083-7.737,0.158-10.749c-2.924-3.011-7.737-3.083-10.749-0.158l-35.347,34.321H110.579 c-4.199,0-7.602,3.403-7.602,7.602v38.515c0,4.198,3.402,7.602,7.602,7.602h94.872L99.359,374.478 c-25.005-32.98-39.861-74.057-39.846-118.541C59.548,147.613,147.683,59.512,256,59.512c0.02,0,0.044,0,0.064,0 c46.516,0.015,89.292,16.287,122.975,43.414l-28.99,28.148c-3.012,2.924-3.083,7.737-0.158,10.749 c1.491,1.536,3.471,2.306,5.455,2.306c1.907,0,3.818-0.715,5.295-2.148l29.906-29.037c5.765,5.424,11.202,11.192,16.281,17.27 L125.827,403.045C119.901,397.793,114.295,392.19,109.04,386.268z M221.109,256.266h-41.291v-23.311h65.299L221.109,256.266z M164.615,232.955L164.615,232.955v23.311h-46.434v-23.311H164.615z M322.834,232.955h36.85v23.311h-60.86L322.834,232.955z M256,452.488c-0.02,0-0.044,0-0.064,0c-44.377-0.014-85.354-14.823-118.277-39.74l145.507-141.279h84.12h18.854h18.855 c4.199,0,7.602-3.404,7.602-7.602v-38.515c0-4.198-3.402-7.602-7.602-7.602h-18.856h-18.854h-28.793l77.688-75.431 c22.867,32.126,36.321,71.393,36.308,113.743C452.452,364.388,364.317,452.491,256,452.488z M374.887,256.266v-23.311h3.651 v23.311H374.887z M393.741,256.266v-23.311h3.652v23.311H393.741z"/> </g> </g> </g>
</svg>